<?xml version="1.0" standalone="no"?><!DOCTYPE svg PUBLIC "-//W3C//DTD SVG 1.1//EN" "http://www.w3.org/Graphics/SVG/1.1/DTD/svg11.dtd"><svg class="icon" width="200px" height="200.00px" viewBox="0 0 1024 1024" version="1.1" xmlns="http://www.w3.org/2000/svg"><path d="M844.2 718.4c-12.4 12.5-41.3 37.4-95.2 37.5l-306.6 0.8c95.1-91.4 169.4-170.3 177.7-174.5 8.3-8.3 24.8-24.9 41.3-37.4 33-37.4 62-41.6 91.1-41.7 37.3-0.1 66.3 12.3 91.3 37.1 49.8 45.5 50 132.5 0.4 178.2z m61.5-236.3c-37.4-37.2-91.3-66.1-145.2-65.9-53.9 0.1-95.3 21-132.5 45.9-12.4 12.5-37.2 29.1-53.7 54-20.7 12.5-326.5 324.1-326.5 324.1l451.7-1.2c29-0.1 53.9-0.1 70.4-4.3 45.6-4.3 95.2-25.1 132.4-58.4 78.6-83.1 78.2-215.7 3.4-294.2z m0 0" fill="#00A3FF" /><path d="M396 462.7c-41.5-28.9-78.8-41.2-128.6-41.1-58 0.2-111.8 25.2-144.9 66.7C44 571.4 44.3 704 127.4 786.6c33.2 33.1 70.6 49.5 112 49.4l82.7-79-45.6 0.1c-45.6-4-74.6-20.5-95.4-37-49.9-49.6-50.1-128.3-0.5-182.3 24.8-24.9 49.6-37.4 91.1-37.5 24.9-0.1 49.7 4 83 37.1 12.5 16.5 49.8 41.3 62.3 57.8h4.1l49.6-58.1c-16.5-20.7-58.1-53.7-74.7-74.4" fill="#00C8DC" /><path d="M772.8 366.4c-37.6-107.6-145.5-181.9-261.5-181.6-140.9 0.4-252.5 104.3-277 236.9 8.3 0 20.7-4.2 33.1-4.2 12.4 0 33.2 4.1 45.6 4 20.5-91.2 99-153.6 190.2-153.8 78.7-0.2 149.3 45.2 182.6 115.5 0 0 4.2 4.1 4.1 0 29.1-4.2 58.1-16.7 82.9-16.8 0.1 8.3 0.1 8.3 0 0" fill="#006EFF" /></svg>